<mxfile host="Electron" agent="Mozilla/5.0 (Macintosh; Intel Mac OS X 10_15_7) AppleWebKit/537.36 (KHTML, like Gecko) draw.io/26.0.7 Chrome/128.0.6613.186 Electron/32.2.5 Safari/537.36" version="26.0.7">
  <diagram name="Page-1" id="c7558073-3199-34d8-9f00-42111426c3f3">
    <mxGraphModel dx="979" dy="756" grid="1" gridSize="10" guides="1" tooltips="1" connect="1" arrows="1" fold="1" page="1" pageScale="1" pageWidth="826" pageHeight="1169" background="none" math="0" shadow="0">
      <root>
        <mxCell id="0" />
        <mxCell id="1" parent="0" />
        <mxCell id="LHXYzgNQTQF4v2ZtKzrn-112" value="" style="rounded=1;whiteSpace=wrap;html=1;absoluteArcSize=1;arcSize=14;strokeWidth=2;" vertex="1" parent="1">
          <mxGeometry x="130" y="320" width="310" height="140" as="geometry" />
        </mxCell>
        <mxCell id="LHXYzgNQTQF4v2ZtKzrn-108" value="" style="rounded=1;whiteSpace=wrap;html=1;strokeWidth=2;fillWeight=4;hachureGap=8;hachureAngle=45;fillColor=#1ba1e2;sketch=1;" vertex="1" parent="1">
          <mxGeometry x="150" y="345" width="120" height="60" as="geometry" />
        </mxCell>
        <mxCell id="LHXYzgNQTQF4v2ZtKzrn-113" value="&lt;font style=&quot;font-size: 17px;&quot;&gt;待&lt;/font&gt;&lt;div&gt;&lt;font style=&quot;font-size: 17px;&quot;&gt;迁&lt;/font&gt;&lt;/div&gt;&lt;div&gt;&lt;font style=&quot;font-size: 17px;&quot;&gt;移&lt;/font&gt;&lt;/div&gt;&lt;div&gt;&lt;font style=&quot;font-size: 17px;&quot;&gt;数&lt;/font&gt;&lt;/div&gt;&lt;div&gt;&lt;font style=&quot;font-size: 17px;&quot;&gt;据&lt;/font&gt;&lt;/div&gt;&lt;div&gt;&lt;font style=&quot;font-size: 17px;&quot;&gt;库&lt;/font&gt;&lt;/div&gt;" style="text;html=1;align=center;verticalAlign=middle;whiteSpace=wrap;rounded=0;strokeWidth=6;" vertex="1" parent="1">
          <mxGeometry x="413" y="375" width="120" height="30" as="geometry" />
        </mxCell>
        <mxCell id="LHXYzgNQTQF4v2ZtKzrn-114" value="&lt;font style=&quot;font-size: 17px;&quot;&gt;表1&lt;/font&gt;" style="text;html=1;align=center;verticalAlign=middle;whiteSpace=wrap;rounded=0;strokeWidth=6;" vertex="1" parent="1">
          <mxGeometry x="150" y="420" width="120" height="30" as="geometry" />
        </mxCell>
        <mxCell id="LHXYzgNQTQF4v2ZtKzrn-115" value="" style="rounded=1;whiteSpace=wrap;html=1;strokeWidth=2;fillWeight=4;hachureGap=8;hachureAngle=45;fillColor=#1ba1e2;sketch=1;" vertex="1" parent="1">
          <mxGeometry x="300" y="345" width="120" height="60" as="geometry" />
        </mxCell>
        <mxCell id="LHXYzgNQTQF4v2ZtKzrn-116" value="&lt;font style=&quot;font-size: 17px;&quot;&gt;表2&lt;/font&gt;" style="text;html=1;align=center;verticalAlign=middle;whiteSpace=wrap;rounded=0;strokeWidth=6;" vertex="1" parent="1">
          <mxGeometry x="300" y="420" width="120" height="30" as="geometry" />
        </mxCell>
        <mxCell id="LHXYzgNQTQF4v2ZtKzrn-121" value="" style="shape=flexArrow;endArrow=classic;html=1;rounded=0;entryX=0.123;entryY=0.004;entryDx=0;entryDy=0;entryPerimeter=0;" edge="1" parent="1">
          <mxGeometry width="50" height="50" relative="1" as="geometry">
            <mxPoint x="286" y="230" as="sourcePoint" />
            <mxPoint x="283.69" y="315" as="targetPoint" />
          </mxGeometry>
        </mxCell>
        <mxCell id="LHXYzgNQTQF4v2ZtKzrn-122" value="" style="strokeWidth=2;html=1;shape=mxgraph.flowchart.database;whiteSpace=wrap;" vertex="1" parent="1">
          <mxGeometry x="216.25" y="160" width="137.5" height="60" as="geometry" />
        </mxCell>
        <mxCell id="LHXYzgNQTQF4v2ZtKzrn-123" value="&lt;font style=&quot;font-size: 17px;&quot;&gt;外部数据源&lt;/font&gt;" style="text;html=1;align=center;verticalAlign=middle;whiteSpace=wrap;rounded=0;strokeWidth=2;" vertex="1" parent="1">
          <mxGeometry x="237.5" y="120" width="95" height="30" as="geometry" />
        </mxCell>
      </root>
    </mxGraphModel>
  </diagram>
</mxfile>
